<?xml version="1.0" encoding="utf-8"?>
<!-- Generator: Adobe Illustrator 21.1.0, SVG Export Plug-In . SVG Version: 6.00 Build 0)  -->
<svg version="1.1" id="Layer_1" xmlns="http://www.w3.org/2000/svg" xmlns:xlink="http://www.w3.org/1999/xlink" x="0px" y="0px"
	 viewBox="0 0 200 200" style="enable-background:new 0 0 200 200;" xml:space="preserve">
<style type="text/css">
	.st0{fill:#E31837;}
</style>
<g>
	<path class="st0" d="M134.8,77.6l52.2-7.9c0,0-3.2-0.7-6.1-0.4c-2.5,0.4-49.4,6.4-49.4,6.4s-1.4-0.4-2.1,0l-6.8,1.1
		c0,0-1.1-0.7-1.8-0.7h-1.4l-0.7-0.7h-2.9l-0.7,0.4l-2.1-1.1c0,0-0.4-0.4-1.1-0.4c-0.7,0-2.5,0-2.5,0L89.7,62.9h-7.2
		c0,0,19,9.3,25.8,11.8c0,0,1.4,1.4,2.5,1.8c0,0-6.8,0-8.6-0.7c0,0-1.1-0.4-1.8,0l-65.5-5l1.1,1.1l64.1,5.7l1.1,0.7
		c0,0,3.2-0.4,4.3-0.4c1.1,0.4,5.7,0.4,6.1,1.1l1.8,0.7v3.2c0,0-5.4,0.7-6.1,1.4l-1.1,2.5c0,0-6.1,0.4-11.1,1.4
		c-3.2,0.7-8.2,2.9-12.9,4.3c-1.8,0.7-2.9,2.9-2.9,5.7l2.9,2.9l1.1,0.4l-0.7,0.4l-30.8,2.9l-6.4-10.4c0,0-2.9-0.4-7.2,1.1l3.2,8.2
		l-6.1-1.1l-7.2-11.1c0,0-1.4-1.1-4.3-0.4l-3.9,0.7l5.4,15c0,0-5-0.4-7.5,0.4c0,0-4.3,1.1-4.3,3.6c0,2.1-0.7,5,2.9,6.1
		c0,0,1.4,0.7,2.5,0.7c1.1,0,4.3-0.4,6.4-0.7c2.1-0.4,8.2-0.7,8.2-0.7l0.7,0.7v0.7h1.1v-1.4h2.5l0.7,0.4h2.9l2.1-2.1h1.4l0.7,1.8
		l9.3,1.4l2.5-2.1l-1.1-2.5l26.1-2.5c0,0,11.5,12.9,17.9,15.7l-1.1,2.1v2.1l-0.4,1.1v2.1l-1.4,0.4v1.4l15.4-0.7v1.1h-1.4v1.4
		l35.8-1.8c0,0,3.9-0.7,6.1-6.4h-2.9l1.1,1.1c0,0-1.1,4.3-6.8,3.9l-0.4-3.9c0,0-2.9-2.9-3.9-2.9v-1.4c0,0,24.7-1.1,26.5-13.2
		c0,0-8.2-15-29.3-18.6c0,0-2.5-0.7-4.3-2.5c-2.1-2.1-4.7-5.7-11.1-7.5v-4.7h8.6h0.7h53.3L133,77.9l-0.7-0.7l-1.1-0.4
		C131.5,77.6,133,76.9,134.8,77.6 M120.1,80.8l1.8-0.4v3.9l-1.8-0.4V80.8z M118.3,80.4l0.7-0.4v3.2h-0.7V80.4z M114.4,82.2l2.1-0.7
		v1.8h-2.1V82.2z M113.6,133.4l-11.8,0.7v-2.5l-0.4-0.4v-1.8l1.1,1.1l1.1-0.7l0.4-0.7l1.8,0.4l0.4-0.7l2.1,0.4l0.4,0.7h0.7l0.4-0.7
		h1.1v1.4l3.2,1.8L113.6,133.4z M131.9,128.4l0.7-0.4l2.5-0.4l0.7,0.4l1.4-0.4l1.1,0.4c0,0-1.4,4.3-4.3,4.3c-2.5,0-2.5,0-2.5,0
		l-0.4-0.4v-2.5L131.9,128.4z M135.5,133.4c2.5,0,4.7-5,4.7-5s3.2,1.8,3.6,2.1s0.4,3.6,0.4,3.6l-0.4,0.7l-27.9,1.4v-1.4
		C115.8,134.8,132.6,133.8,135.5,133.4z M130.1,128v1.4l0.4,2.5l-0.7,0.7l-14.3,0.7v-1.8l-1.1-1.8v-0.7L130.1,128z"/>
</g>
</svg>
