<?xml version="1.0" encoding="utf-8"?>
<!-- Generator: Adobe Illustrator 18.0.0, SVG Export Plug-In . SVG Version: 6.00 Build 0)  -->
<!DOCTYPE svg PUBLIC "-//W3C//DTD SVG 1.1//EN" "http://www.w3.org/Graphics/SVG/1.1/DTD/svg11.dtd">
<svg version="1.1" id="Layer_1" xmlns="http://www.w3.org/2000/svg" xmlns:xlink="http://www.w3.org/1999/xlink" x="0px" y="0px"
	 width="436px" height="94px" viewBox="184 268 436 94" enable-background="new 184 268 436 94" xml:space="preserve">
<g>
	<path fill="#FFFFFF" d="M185.6,335.6v-0.8c0-5.2,1.6-10.4,4-15.2c2.4-4.4,5.2-8,8.8-10.4c3.6-2.8,6.8-4,10-4c2.4,0,4.4,0.8,6,2.4
		c1.2,1.6,2,3.2,2,5.6c0,2.8-0.8,5.2-2.8,7.6c-1.2,1.6-2.4,2.4-3.6,3.2c-0.4,0.4-1.2,0.4-1.6,0.4c-0.4,0-0.8,0-1.6-0.4
		c-0.4-0.4-0.8-0.4-1.2-0.8c-0.8-0.8-0.8-1.2-0.8-2c0-0.4,0-0.8,0.4-1.2c2.8-2,4.8-4.4,6-6.4c0.4-0.8,0.8-1.6,0.8-2.4
		c0-1.6-0.8-2.8-2.4-2.8c-2.4,0-5.2,1.6-8,4.4c-2.4,2.4-4.8,6-6.4,9.6c-2,4-2.8,7.6-2.8,11.2v1.2c0,4,0.8,6.8,2.4,8
		c0.8,0.4,1.2,0.8,2,0.8s1.6,0,2.4-0.4c0.8-0.4,1.6-0.4,2.4-0.8c1.2-0.8,2.8-1.6,4.8-3.2c0.4-0.4,1.2-0.4,1.6,0
		c0.4,0.4,0.4,1.2,0.4,1.6c0,1.2,0,1.6-0.4,2c-0.4,0.4-0.8,0.8-1.6,1.2s-1.6,0.8-2.4,1.2c-2.4,1.2-4.4,1.6-6.8,1.6s-4-0.4-5.2-0.8
		s-2.4-1.2-3.2-2.4C186.4,342,185.6,339.2,185.6,335.6z"/>
	<path fill="#FFFFFF" d="M233.6,324.4c-0.8,0-2.8,1.6-5.2,4.4l-2.4,2.8l-4.4,5.6c-1.2,2-2,3.6-2.4,4.8l-1.6,3.2
		c-0.4,0.8-0.8,1.2-0.8,1.6s-0.8,0.4-1.2,0.4s-0.8,0-1.2-0.4c-0.4,0-0.8-0.4-1.2-0.8c-0.8-0.4-1.2-1.2-1.2-2c0-0.4,0-0.8,0.4-1.6
		l1.2-2c3.2-6.8,6.4-15.6,9.2-26c1.2-4,1.6-7.2,2-10.4c0-1.6,0.8-2.4,2-2.4c0.8,0,1.6,0,2,0.4c1.2,0.8,1.6,1.6,1.6,2.4
		c0,0.8,0,2-0.4,2.8c-0.4,1.2-0.4,2.4-0.8,3.6c-0.4,1.2-0.8,2.8-1.2,4c-1.2,3.6-2,6-2.8,7.6c-1.6,4.8-2.8,7.6-3.2,8.4
		c0.4-0.4,0.8-0.8,1.2-1.2c3.2-4.4,5.2-6.8,6-7.6s1.6-1.6,2-2c1.2-0.8,2.4-1.6,4.4-1.6c1.6,0,2.4,0.4,3.6,1.6c0.8,0.8,1.2,2,1.2,2.8
		c0,0.8,0,2-0.4,2.8c-0.4,0.8-0.4,1.6-0.8,2.8c-0.4,0.8-0.8,2-1.2,2.8l-1.2,2.8c-1.2,2.8-2,4.8-2,6.4c0,0.8,0.4,1.6,1.2,1.6
		s1.6,0,2-0.4c0.8-0.4,1.2-0.4,1.2-0.4c0.4,0,0.4,0,0.4,0.4c0,1.6-0.8,2.8-2.4,4c-1.2,0.8-2,1.2-3.2,1.2c-0.8,0-1.6,0-2.4-0.4
		c-0.4,0-1.2-0.4-1.6-0.8c-1.2-0.8-1.6-2.4-1.6-4.4s0.8-4.4,2-7.6l2.8-6c0.4-1.2,0.8-2,0.8-2.8S234,324.4,233.6,324.4z"/>
	<path fill="#FFFFFF" d="M244.8,346.4c-0.4-0.4-0.8-0.4-0.8-0.8c-0.4-0.4-0.4-0.8-0.4-0.8s0-0.4,0-0.8c0-0.4,0.4-0.8,0.4-1.2
		c3.6-8.8,5.6-14.8,5.6-18c0-0.8-0.4-1.6-0.8-2L248,322c0,0-0.4-0.4-0.4-0.8c0-0.4,0-0.8,0.4-0.8c0.4-0.4,0.4-0.4,0.8-0.8
		c0.8-0.4,1.6-0.8,2.4-0.8c0.8,0,1.6,0,2,0.4c0.4,0,0.8,0.4,1.2,0.8c0.8,0.8,1.2,1.2,1.2,2c0,0.8,0,1.6-0.4,2c0,0.8-0.4,1.6-0.8,2
		c-0.4,0.8-0.4,1.2-0.8,2c-0.4,0.8-0.4,1.2-0.4,1.6c0,0.8,0,1.2,0,1.2c0.4-0.4,0.8-0.8,0.8-1.2l1.2-2c2.4-4,4.4-6.8,6.8-8.4
		c0.8-0.4,1.6-0.4,2.4-0.4s1.6,0.4,2,0.8c0.4,0.8,0.8,1.2,0.8,2c0,0.8,0,1.6,0,2c0,0.4-0.4,0.8-0.8,1.6c-0.4,1.2-1.2,1.6-2,1.6
		c-0.4,0-0.4,0-0.8-0.4l-0.4-0.4c-0.4-0.4-1.2-0.8-1.6-0.8s-1.2,0.4-2,1.2c-0.8,0.8-1.6,1.6-2.4,2.8c-2.8,3.6-5.2,8-6.8,12.4
		l-1.2,3.2c-0.4,0.8-0.4,1.2-0.8,1.6c-0.4,0.4-0.4,0.4-1.2,0.4s-0.8,0-1.2-0.4C245.6,346.8,245.2,346.4,244.8,346.4z"/>
	<path fill="#FFFFFF" d="M276,342c0.4,0,0.8,0.4,0.8,0.8c0,0.8-0.4,1.6-1.2,2.4c-1.2,1.2-2.4,2-4.4,2s-3.6-0.8-4.4-2.4
		c-0.4-0.4-0.4-1.2-0.4-2c0-0.8,0-1.6,0.4-2.8s0.8-2,1.2-3.2c0.4-1.2,0.8-2.4,1.6-3.6l1.6-3.2c1.2-2.4,1.6-4,1.6-4.8
		c0-0.8,0-1.2-0.4-1.6c0-0.4-0.4-0.4-0.4-0.8l-0.4-0.4c0,0-0.4-0.4-0.4-0.8c0-0.4,0-0.8,0.4-0.8c0.4-0.4,0.4-0.4,0.8-0.8
		c0.8-0.4,1.6-0.8,2.8-0.8c2.8,0,4,0.8,4,2c0,1.6-0.4,3.6-1.2,5.6c-0.8,2-1.6,3.6-2,4.8l-1.6,3.6c-1.6,2.8-2.4,4.8-2.4,6
		c0,0.8,0.4,1.2,1.2,1.2c0.8,0,1.2,0,1.6-0.4C275.6,342,275.6,342,276,342z M281.6,312.8c-0.4,0.4-0.8,0.8-1.2,1.2
		c-0.4,0.4-1.2,0.4-1.6,0.4s-1.2,0-1.6-0.4s-0.8-0.4-1.2-0.8c-0.8-0.8-1.2-1.6-1.2-2.8c0-0.8,0-1.6,0.4-2s0.8-0.8,1.2-1.2
		c0.8-0.4,1.6-0.8,2.4-0.8s1.2,0,1.6,0s0.8,0.4,1.2,0.4c0.8,0.4,1.2,1.2,1.2,2c0,0.8,0,1.6-0.4,2C282,312,282,312.4,281.6,312.8z"/>
	<path fill="#FFFFFF" d="M281.2,342c0-0.4,0-1.2,0.4-1.6s0.4-0.8,0.8-1.2c0.8-0.8,1.6-1.2,2.4-1.2s1.2,0.4,1.2,1.2c0,2,0.8,3.2,2,4
		c0.4,0.4,0.8,0.4,1.2,0.4s0.8,0,1.2,0c0.4,0,0.8-0.4,0.8-0.4c0.8-0.4,0.8-1.2,0.8-2c0-0.8,0-1.2-0.4-2c-0.4-0.8-0.8-1.2-1.2-2
		l-1.6-2c-2-2.8-3.2-5.6-3.2-8c0-2,0.8-4,2.4-5.6c2-2,4.4-2.8,7.6-2.8c2.8,0,4.8,0.8,6,2c1.2,1.2,2,2.4,2,3.6c0,1.6-0.4,2.4-1.6,3.2
		c-0.8,0.8-2,1.2-2.8,0.8c-0.4,0-0.8-0.4-0.8-0.8c0-0.4-0.4-0.8,0-1.2c0-0.4,0.4-0.8,0.4-1.2c0-0.4,0-0.8-0.4-1.2
		c0-0.4-0.4-0.8-0.8-1.2c-0.8-0.4-1.2-0.8-2-0.8s-1.2,0-1.6,0.4c-0.4,0-0.8,0.4-1.2,0.8c-0.8,0.8-1.2,1.6-1.2,2.4s0,1.6,0.4,2.4
		s0.8,1.2,1.2,2c0.4,0.8,0.8,1.2,1.6,2c0.4,0.8,1.2,1.6,1.6,2c1.2,2,1.6,3.2,1.6,4.8c0,1.2-0.4,2.4-0.8,3.6
		c-0.4,0.8-1.2,1.6-2.4,2.4c-2,1.6-4,2-6.4,2s-4-0.4-5.6-1.6C282,344.4,281.2,343.6,281.2,342z"/>
	<path fill="#FFFFFF" d="M321.6,340c0.4,0,0.8,0.4,0.8,1.2c0,0.4,0,1.2-0.4,1.6c-0.4,1.2-1.6,2-2.8,2.8c-1.6,1.2-3.2,1.6-4.8,1.6
		c-2.8,0-4.8-1.2-5.6-4c-0.8-3.2,0.4-9.6,4-19.6c-2,0-3.2-0.4-3.2-1.2V322c0,0,0-0.4,0.4-0.8s0.4-0.4,0.8-0.8c0.8-0.4,1.2-0.8,2-0.8
		h2c2-4.4,3.2-7.2,4-7.6c0.4-0.4,0.8-0.4,1.2-0.4s0.8,0,1.2,0c0.4,0,0.8,0.4,0.8,0.4c0.4,0.4,0.8,1.2,0.8,1.6s0,0.8-0.4,1.2L320,320
		h0.8c1.2,0,2,0,2.8,0h1.6c0.4,0,0.8,0,1.2,0s0.8,0,0.8,0.4c0,2.4-2.8,3.6-8.4,3.6h-0.4l-2,4.8c-2,5.6-3.2,9.6-3.2,11.6
		c0,0.8,0,1.2,0.4,1.6c0.4,0.4,0.8,0.4,1.6,0.4c0.8,0,1.6,0,2-0.4c0.8-0.4,1.2-0.4,1.6-0.8c0.4-0.4,0.8-0.8,1.2-0.8
		C320.8,340,321.2,340,321.6,340z"/>
	<path fill="#FFFFFF" d="M346,324.4c-1.2,0-2.8,1.6-5.6,4.4c-2,2.4-3.6,4-4.4,5.2l-2.4,3.2c-1.2,2-2,3.6-2.4,4.8l-1.6,3.2
		c-0.4,0.8-0.8,1.2-0.8,1.6c0,0.4-0.8,0.4-1.2,0.4c-0.4,0-0.8,0-1.2-0.4c-0.4,0-0.8-0.4-1.2-0.8c-0.8-0.4-1.2-1.2-1.2-2
		c0-0.4,0-0.8,0.4-1.6l1.2-2c0.4-0.8,0.8-1.6,1.2-2.4l1.6-3.6c2-5.2,3.2-8.8,3.2-10.4c0-0.8-0.4-1.6-0.8-2l-0.4-0.4
		c0,0-0.4-0.4-0.4-0.8s0-0.8,0.4-0.8c0.4-0.4,0.4-0.4,0.8-0.8c0.8-0.4,1.6-0.8,2.4-0.8s1.6,0,2,0.4c0.4,0.4,0.4,1.2,0.8,1.2
		c0.8,0.8,1.2,1.2,1.2,2s0,1.2-0.4,2c0,0.8-0.4,1.2-0.8,2s-0.4,1.2-0.8,2c-0.8,1.6-1.2,2.4-1.2,2.8c0,0.4-0.4,0.4,0,0.4
		c3.2-4.4,5.2-6.8,6-7.6c1.2-1.6,2.4-2.8,3.2-3.2c1.6-1.2,2.8-1.6,4-1.6s2.4,0.4,3.2,1.2c0.8,0.8,1.2,2,1.2,3.2c0,1.2-0.4,2.4-0.8,4
		c-0.4,1.6-0.8,2.4-1.2,3.2l4-5.2l2-2.8c1.2-1.6,2.4-2.4,3.6-2.8c0.8-0.4,2-0.8,2.4-0.8s1.2,0,2,0.4s1.2,0.4,1.6,0.8
		c0.8,0.8,1.2,2,1.2,3.6c0,1.2-0.4,2.8-0.8,4.4c-0.8,1.6-1.2,2.8-1.6,3.6c-0.4,0.8-0.8,2-1.2,2.8c-1.2,2.8-2,4.8-2,6.4
		c0,0.8,0.4,1.6,1.2,1.6c0.8,0,1.6,0,2-0.4c0.8-0.4,1.2-0.4,1.2-0.4c0.4,0,0.4,0,0.4,0.4c0,1.6-0.8,2.8-2.4,4
		c-1.2,0.8-2,1.2-2.8,1.2s-1.6,0-2-0.4c-0.4-0.4-1.2-0.4-1.6-1.2c-0.8-1.2-1.6-2.4-1.6-4s0-2.8,0.4-4.4c0.4-1.2,0.8-2.4,1.2-3.6
		c0.4-1.2,1.2-2.4,1.6-3.2c0.4-1.2,0.8-2,1.2-2.4c0.4-1.2,0.8-2,0.8-2.8s-0.4-1.2-1.2-1.2c-0.8,0-2.8,1.6-5.2,4.8
		c-2,2.4-3.2,4.4-4,5.2l-2,2.8c-1.2,2-2,3.6-2.4,4.8l-1.2,3.2c-0.4,0.8-0.8,1.2-0.8,1.6s-0.4,0.4-1.2,0.4c-0.4,0-0.8,0-1.2-0.4
		c-0.4,0-0.8-0.4-1.2-0.4c-0.8-0.4-1.2-1.2-1.2-1.6c0-0.4,0-1.2,0.4-2.4s0.8-2,1.6-3.2l3.6-8c1.2-2.8,2-4.8,2-5.6
		C346.8,324.8,346.4,324.4,346,324.4z M348.4,331.6L348.4,331.6L348.4,331.6L348.4,331.6z"/>
	<path fill="#FFFFFF" d="M391.2,339.6c0,1.6,0.4,2.4,1.6,2.4c0.8,0,1.6,0,2-0.4s0.8-0.4,1.2-0.4c0.4,0,0.4,0,0.4,0.4
		c0,1.6-0.8,2.8-2.4,4s-3.6,1.6-5.2,0.8c-1.2-0.4-2-1.2-2.4-2.8c-0.4-0.8-0.4-1.2-0.4-2s0-2,0.4-2.8c-1.6,3.2-3.6,5.6-6,7.2
		c-0.8,0.4-2,0.8-3.2,0.8s-2-0.4-2.8-0.8c-0.8-0.4-1.6-1.2-2-2c-1.2-1.6-1.6-3.6-1.6-6.4c0-3.2,1.2-6.4,2.8-9.2
		c1.6-2.8,3.6-5.2,6-6.8c2.4-2,4.8-2.8,6.8-2.8s4,0.8,5.2,2.8c1.2-2,2.4-2.8,3.2-2.8c1.2,0,1.6,0,2.4,0.4c0.8,0.8,1.2,1.2,1.2,2
		c-4.4,9.2-6.8,14.8-6.8,17.2C391.2,339.2,391.2,339.6,391.2,339.6z M376,340c0,2,0.8,3.2,2,3.2s2.4-0.8,4-2.8c2.4-2.8,4.4-6,6-10.8
		c0.4-1.2,1.2-2.8,1.2-4c0-1.2-0.4-2-1.6-2.8c-0.4,0-0.8-0.4-1.6-0.4c-0.8,0-1.2,0.4-2.4,0.8c-0.8,0.4-1.6,1.2-2.4,2
		c-0.8,0.8-1.6,1.6-2.4,2.8s-1.2,2.4-2,3.6C376.8,334.4,376,337.2,376,340z"/>
	<path fill="#FFFFFF" d="M398.8,342c0-0.4,0-1.2,0.4-1.6s0.4-0.8,0.8-1.2c0.8-0.8,1.6-1.2,2.4-1.2s1.2,0.4,1.2,1.2c0,2,0.8,3.2,2,4
		c0.4,0.4,0.8,0.4,1.2,0.4c0.4,0,0.8,0,1.2,0c0.4,0,0.8-0.4,0.8-0.4c0.8-0.4,0.8-1.2,0.8-2c0-0.8,0-1.2-0.4-2
		c-0.4-0.8-0.8-1.2-1.2-2l-1.6-2c-2-2.8-3.2-5.6-3.2-8c0-2,0.8-4,2.4-5.6c2-2,4.4-2.8,7.6-2.8c2.8,0,4.8,0.8,6,2
		c1.2,1.2,2,2.4,2,3.6c0,1.6-0.4,2.4-1.6,3.2c-0.8,0.8-2,1.2-2.8,0.8c-0.4,0-0.8-0.4-0.8-0.8c0-0.4-0.4-0.8,0-1.2
		c0-0.4,0.4-0.8,0.4-1.2c0-0.4,0-0.8-0.4-1.2c0-0.4-0.4-0.8-0.8-1.2c-0.8-0.4-1.2-0.8-2-0.8s-1.2,0-1.6,0.4c-0.4,0-0.8,0.4-1.2,0.8
		c-0.8,0.8-1.2,1.6-1.2,2.4s0,1.6,0.4,2.4s0.8,1.2,1.2,2c0.4,0.8,0.8,1.2,1.6,2c0.4,0.8,1.2,1.6,1.6,2c1.2,2,1.6,3.2,1.6,4.8
		c0,1.2-0.4,2.4-0.8,3.6c-0.4,0.8-1.2,1.6-2.4,2.4c-2,1.6-4,2-6.4,2s-4-0.4-5.6-1.6C399.2,344.4,398.8,343.6,398.8,342z"/>
	<path fill="#FFFFFF" d="M458.4,340.8c0-2.4,0.8-6,2-11.2c-4.4,0-7.6,0.4-10,0.4c-0.8,1.2-1.2,2.4-2,3.6l-1.6,3.2
		c-2,4.4-4,7.2-6,8.4c-1.2,1.2-2.8,1.6-4.4,1.6c-1.2,0-2-0.4-2.4-1.2c-0.4-0.4-0.4-0.4-0.4-0.8c0-0.4,0-0.4,0-0.4
		c2-0.8,3.6-2,5.2-3.6c1.2-1.6,2.4-3.2,3.2-5.2l3.2-5.6l-1.6,0.4c-1.2,0-1.6,0-1.6-0.4s0.4-1.2,0.8-1.6c1.2-0.8,2.4-1.2,3.2-1.6
		l1.2-0.4c2.8-4.8,5.2-8.4,6.8-10c1.6-2,2.8-3.6,4.4-4.8c1.2-1.2,2.8-2.4,4-3.6c3.2-2,6-3.2,9.2-3.2c0.8,0,1.6,0,2,0.4
		c0.4,0.4,0.8,1.2,0.4,2c0,0.8-0.4,1.6-0.8,2.8c-2.8,7.6-4.8,12.8-5.2,14.4c0.4,0,0.4,0,0.8,0h0.4c2,0,3.2,0,3.2,0.4
		c0,0,0,0.4,0,0.8s0,0.8-0.4,1.2c-0.4,0.4-0.4,0.8-1.2,1.2c-0.8,0.8-2.4,1.2-4.8,1.2c-1.2,4-2,7.2-2,8.8s0,2.8,0,3.2
		c0.4,0.4,0.8,0.8,1.2,0.8c0.4,0,0.8,0,1.2,0c0.4,0,0.8-0.4,0.8-0.4l0.8-0.4h0.4c0,0,0.4,0,0.4,0.4s0,0.4,0,0.8c0,0.4,0,0.8-0.4,1.6
		c-0.4,0.4-0.8,1.2-1.2,1.6c-1.2,1.2-2.8,1.6-4.4,1.6c-2.4,0-4-1.2-4.8-3.2c-0.4-0.8-0.4-1.6-0.4-2v-1.2H458.4z M452.8,326
		c3.2-0.4,6-0.8,8.8-0.8c0.4-1.6,1.2-3.2,1.6-4.4l1.6-4.4c0.4-1.2,1.2-2.8,1.6-4l1.6-3.2c-3.6,0.8-7.2,4-11.2,9.6
		c-0.8,1.2-1.6,2.4-2.4,3.6L452.8,326z"/>
	<path fill="#FFFFFF" d="M478.8,344.4c0,0.4-0.4,1.6-1.2,4.4s-1.2,4.4-2,6c-1.2,3.2-2,5.6-2.8,6.4c-0.4,0.8-1.2,0.8-2,0.8
		c-1.2,0-1.6-0.4-2.4-1.6c0-0.4-0.4-0.8-0.4-0.8c0-0.4,0.4-1.2,0.8-2.4c1.6-2.8,3.2-8.8,5.6-17.6c0.8-3.6,1.6-5.6,2-6.8l0.8-3.2
		c0.4-2.4,0.8-3.6,0.8-4.4c0-0.8,0-1.2,0-1.6s-0.4-0.4-0.8-0.8c-0.4,0-0.4-0.4-0.8-0.4s-0.4-0.4-0.4-0.8c0-0.4,0-0.8,0.4-0.8
		c0.4-0.4,0.4-0.4,0.8-0.8c0.8-0.4,1.6-0.4,2.4-0.4s1.6,0,2,0.4c0.4,0,0.8,0.4,1.2,0.8c0.8,0.8,0.8,1.2,0.8,2c0,1.2-0.4,2.4-0.4,3.6
		c3.2-4.4,6.4-6.8,9.6-6.8s5.2,1.6,6,4.8c0.4,1.2,0.4,2.4,0.4,4s-0.4,3.2-0.8,4.8c-0.4,1.6-1.2,3.2-2,4.4c-0.8,1.2-1.6,2.8-2.8,4
		c-1.2,1.2-2.4,2.4-3.6,3.2c-2.4,2-5.2,2.8-7.2,2.8C481.6,347.2,480,346.4,478.8,344.4z M482.8,332.8c-0.8,1.2-1.2,2.4-1.6,3.6
		c-0.4,1.2-0.8,2.4-0.8,3.6s0.4,2,0.8,2.4c0.4,0.8,1.2,1.2,2,1.2s1.6-0.4,2.8-0.8c0.8-0.4,1.6-1.2,2.4-2c0.8-0.8,1.6-1.6,2.4-2.8
		s1.2-2.4,2-3.6c1.2-2.8,1.6-5.2,1.6-7.6c0-1.2,0-2.4-0.4-3.2c-0.4-0.8-0.8-1.2-1.6-1.2s-1.6,0.4-2.4,0.8c-0.8,0.4-1.6,1.2-2.4,2
		c-0.8,0.8-1.6,2-2.4,3.2C484.4,330.4,483.6,331.6,482.8,332.8z"/>
	<path fill="#FFFFFF" d="M508.8,344.4c0,0.4-0.4,1.6-1.2,4.4c-0.8,2.4-1.2,4.4-2,6c-1.2,3.2-2,5.6-2.8,6.4c-0.4,0.8-1.2,0.8-2,0.8
		c-1.2,0-1.6-0.4-2.4-1.6c0-0.4-0.4-0.8-0.4-0.8c0-0.4,0.4-1.2,0.8-2.4c1.6-2.8,3.2-8.8,5.6-17.6c0.8-3.6,1.6-5.6,2-6.8l0.8-3.2
		c0.4-2.4,0.8-3.6,0.8-4.4c0-0.8,0-1.2,0-1.6s-0.4-0.4-0.8-0.8c-0.4,0-0.4-0.4-0.8-0.4s-0.4-0.4-0.4-0.8c0-0.4,0-0.8,0.4-0.8
		c0.4-0.4,0.4-0.4,0.8-0.8c0.8-0.4,1.6-0.4,2.4-0.4s1.6,0,2,0.4s0.8,0.4,1.2,0.8c0.8,0.8,0.8,1.2,0.8,2c0,1.2-0.4,2.4-0.4,3.6
		c3.2-4.4,6.4-6.8,9.6-6.8c3.2,0,5.2,1.6,6,4.8c0.4,1.2,0.4,2.4,0.4,4s-0.4,3.2-0.8,4.8c-0.4,1.6-1.2,3.2-2,4.4
		c-0.8,1.6-1.6,2.8-2.8,4c-1.2,1.2-2.4,2.4-3.6,3.2c-2.4,2-5.2,2.8-7.2,2.8S510,346.4,508.8,344.4z M513.2,332.8
		c-0.8,1.2-1.2,2.4-1.6,3.6s-0.8,2.4-0.8,3.6s0.4,2,0.8,2.4c0.4,0.8,1.2,1.2,2,1.2s1.6-0.4,2.8-0.8c0.8-0.4,1.6-1.2,2.4-2
		c0.8-0.8,1.6-1.6,2.4-2.8c0.8-1.2,1.2-2.4,2-3.6c1.2-2.8,1.6-5.2,1.6-7.6c0-1.2,0-2.4-0.4-3.2c-0.4-0.8-0.8-1.2-1.6-1.2
		s-1.6,0.4-2.4,0.8c-0.8,0.4-1.6,1.2-2.4,2c-0.8,0.8-1.6,2-2.4,3.2C514.4,330.4,513.6,331.6,513.2,332.8z"/>
	<path fill="#FFFFFF" d="M534.8,337.6c0-1.6,0.4-3.2,0.8-4.4c0.4-1.6,1.2-2.8,1.6-4c0.8-1.2,1.6-2.4,2.8-3.6c1.2-1.2,2-2.4,3.2-3.2
		c2.4-2,5.2-2.8,7.6-2.8c3.2,0,5.2,1.2,6,3.6c0.4,0.8,0.4,2,0.4,3.2c0,1.2-0.4,2.4-0.8,3.2s-1.2,2-1.6,2.8c-0.8,0.8-1.6,1.6-2.8,2
		c-1.2,0.8-2,1.2-3.6,1.6c-2.4,0.8-5.2,1.2-8,1.2c0,0.4,0,0.8,0,1.2c0,0.4,0,1.2,0,1.6c0,0.8,0.4,1.2,0.8,1.6
		c0.8,1.2,1.6,1.6,2.8,1.6c2,0,4-0.8,6-2c0.8-0.4,1.2-0.8,1.6-1.2s0.8-0.8,1.2-0.8s0.8,0,0.8,0.4c0,0.4,0.4,0.8,0.4,1.2
		c0,0.8-0.4,1.6-0.8,2.4c-2.4,2.4-5.6,3.2-10,3.2c-2.8,0-4.8-0.8-6.4-2.4C535.6,343.2,534.4,340.4,534.8,337.6z M550.4,322.8
		c-2,0-3.6,1.2-5.6,4c-1.6,2.4-2.8,4.8-3.6,8c2.8-0.4,5.6-1.6,7.6-3.6s3.2-3.6,3.2-5.6S551.6,322.8,550.4,322.8z"/>
	<path fill="#FFFFFF" d="M580.8,339.6c0,1.6,0.4,2.4,1.6,2.4c0.8,0,1.6,0,2-0.4s0.8-0.4,1.2-0.4s0.4,0,0.4,0.4c0,1.6-0.8,2.8-2.4,4
		c-1.6,1.2-3.6,1.6-5.2,0.8c-1.2-0.4-2-1.2-2.4-2.8c-0.4-0.8-0.4-1.2-0.4-2s0-2,0.4-2.8c-1.6,3.2-3.6,5.6-6,7.2
		c-0.8,0.4-2,0.8-3.2,0.8s-2-0.4-2.8-0.8c-0.8-0.4-1.6-1.2-2-2c-1.2-1.6-1.6-3.6-1.6-6.4c0-3.2,1.2-6.4,2.8-9.2
		c1.6-2.8,3.6-5.2,6-6.8c2.4-2,4.8-2.8,6.8-2.8s4,0.8,5.2,2.8c1.2-2,2.4-2.8,3.2-2.8c1.2,0,1.6,0,2.4,0.4c0.8,0.8,1.2,1.2,1.2,2
		c-4.4,9.2-6.8,14.8-6.8,17.2C581.2,339.2,580.8,339.6,580.8,339.6z M566,340c0,2,0.8,3.2,2,3.2s2.4-0.8,4-2.8c2.4-2.8,4.4-6,6-10.8
		c0.4-1.2,1.2-2.8,1.2-4c0-1.2-0.4-2-1.6-2.8c-0.4,0-0.8-0.4-1.6-0.4s-1.2,0.4-2.4,0.8c-0.8,0.4-1.6,1.2-2.4,2
		c-0.8,0.8-1.6,1.6-2.4,2.8c-0.8,1.2-1.2,2.4-2,3.6C566.8,334.4,566,337.2,566,340z"/>
	<path fill="#FFFFFF" d="M591.2,346c-0.4-0.4-0.8-1.2-1.2-1.6c-0.4-0.8-0.4-1.6-0.4-2.4s0.4-2.4,0.8-4c0.4-1.6,0.8-3.6,1.6-5.6
		l2.4-6.8c3.2-9.2,5.2-16.4,5.6-21.6c0-1.6,0.8-2.4,2-2.4c0.8,0,1.6,0,2,0.4c1.2,0.8,1.6,1.6,1.6,2.8s-0.4,2-0.4,3.6
		c-0.4,1.2-0.8,2.8-1.2,4.4c-0.4,1.6-1.2,3.2-1.6,5.2l-3.6,10.8c-2,6-3.2,10-3.2,12c0,0.8,0.4,1.6,1.2,1.6s1.6,0,2-0.4
		c0.8-0.4,1.2-0.4,1.2-0.4c0.4,0,0.4,0,0.4,0.4c0,1.6-0.8,2.8-2.4,4c-1.2,0.8-2,1.2-2.8,1.2s-1.6,0-2-0.4
		C592.4,346.8,591.6,346.4,591.2,346z"/>
</g>
<g>
	<path fill="#FFFFFF" d="M189.2,268.4v18.4H200v4h-16v-22.4H189.2z"/>
	<path fill="#FFFFFF" d="M202.8,275.2c0.4-1.6,1.2-2.8,2-3.6c0.8-0.8,2-2,3.6-2.4c1.2-0.8,2.8-0.8,4.8-0.8c1.6,0,3.2,0.4,4.8,0.8
		c1.2,0.8,2.4,1.6,3.6,2.4c0.8,1.2,1.6,2.4,2,3.6c0.4,1.6,0.8,2.8,0.8,4.8c0,1.6-0.4,3.2-0.8,4.4c-0.4,1.6-1.2,2.8-2,3.6
		c-0.8,1.2-2,2-3.6,2.4c-1.2,0.4-2.8,0.8-4.8,0.8c-1.6,0-3.2-0.4-4.8-0.8c-1.2-0.4-2.4-1.6-3.6-2.4c-0.8-1.2-1.6-2.4-2-3.6
		c-0.4-1.6-0.8-2.8-0.8-4.4C202,278,202,276.4,202.8,275.2z M207.2,282.4c0.4,0.8,0.4,1.6,1.2,2.4c0.8,0.8,1.2,1.2,2,1.6
		s1.6,0.8,2.8,0.8s2-0.4,2.8-0.8s1.6-0.8,2-1.6c0.4-0.8,0.8-1.6,1.2-2.4c0.4-0.8,0.4-2,0.4-2.8c0-0.8,0-2-0.4-2.8
		c-0.4-0.8-0.4-1.6-1.2-2.4c-0.4-0.8-1.2-1.2-2-1.6c-0.8-0.4-1.6-0.8-2.8-0.8s-2,0.4-2.8,0.8c-0.8,0.4-1.6,1.2-2,1.6
		c-0.4,0.8-0.8,1.6-1.2,2.4c-0.4,0.8-0.4,2-0.4,2.8C206.8,280.8,206.8,281.6,207.2,282.4z"/>
	<path fill="#FFFFFF" d="M232,268.4l9.2,15.2l0,0v-15.2h4.8v22.4h-4.8L232,276l0,0v14.8h-4.8v-22.4H232z"/>
	<path fill="#FFFFFF" d="M260,268.4c1.6,0,2.8,0.4,4,0.8c1.2,0.4,2.4,1.2,3.2,2c0.8,0.8,1.6,2,2,3.6c0.4,1.2,0.8,3.2,0.8,4.8
		s-0.4,3.2-0.8,4.4s-1.2,2.4-2,3.6s-2,1.6-3.2,2.4c-1.2,0.8-2.8,0.8-4.4,0.8H250v-22.4C250,268.4,260,268.4,260,268.4z M260,286.8
		c0.8,0,1.6,0,2-0.4c0.8-0.4,1.2-0.8,1.6-1.2c0.4-0.4,0.8-1.2,1.2-2c0.4-0.8,0.4-2,0.4-3.2c0-1.2,0-2-0.4-3.2
		c-0.4-0.8-0.4-1.6-1.2-2.4c-0.8-0.8-1.2-1.2-2-1.6s-2-0.4-3.2-0.4h-3.6v14h5.2V286.8z"/>
	<path fill="#FFFFFF" d="M273.6,275.2c0.4-1.6,1.2-2.8,2-3.6c0.8-0.8,2-2,3.6-2.4c1.2-0.8,2.8-0.8,4.8-0.8c1.6,0,3.2,0.4,4.8,0.8
		c1.2,0.8,2.4,1.6,3.6,2.4c0.8,1.2,1.6,2.4,2,3.6c0.4,1.6,0.8,2.8,0.8,4.8c0,1.6-0.4,3.2-0.8,4.4c-0.4,1.6-1.2,2.8-2,3.6
		c-0.8,1.2-2,2-3.6,2.4c-1.2,0.4-2.8,0.8-4.8,0.8c-1.6,0-3.2-0.4-4.8-0.8c-1.2-0.4-2.4-1.6-3.6-2.4c-0.8-1.2-1.6-2.4-2-3.6
		c-0.4-1.6-0.8-2.8-0.8-4.4C272.8,278,273.2,276.4,273.6,275.2z M278,282.4c0.4,0.8,0.4,1.6,1.2,2.4c0.8,0.8,1.2,1.2,2,1.6
		s1.6,0.8,2.8,0.8c1.2,0,2-0.4,2.8-0.8s1.6-0.8,2-1.6c0.4-0.8,0.8-1.6,1.2-2.4c0.4-0.8,0.4-2,0.4-2.8c0-0.8,0-2-0.4-2.8
		c-0.4-0.8-0.4-1.6-1.2-2.4c-0.4-0.8-1.2-1.2-2-1.6c-0.8-0.4-2-0.8-2.8-0.8c-1.2,0-2,0.4-2.8,0.8c-0.8,0.4-1.6,1.2-2,1.6
		c-0.4,0.8-0.8,1.6-1.2,2.4c-0.4,0.8-0.4,2-0.4,2.8C277.6,280.8,278,281.6,278,282.4z"/>
	<path fill="#FFFFFF" d="M303.2,268.4l9.2,15.2l0,0v-15.2h4.8v22.4H312l-9.2-14.8l0,0v14.8H298v-22.4H303.2z"/>
	<path fill="#FFFFFF" d="M326,268.4v4.8c0,0.8,0,1.2-0.4,2c-0.4,0.8-0.4,1.2-0.8,1.6c-0.4,0.4-0.8,0.8-1.6,1.2
		c-0.4,0.4-1.2,0.4-2,0.4v-2c0.8-0.4,1.2-0.8,1.6-1.2s0.4-1.2,0.4-2h-2v-4.8H326z"/>
	<path fill="#FFFFFF" d="M334,285.2c0.4,0.4,0.8,0.8,1.2,1.2s0.8,0.4,1.6,0.8c0.8,0,1.2,0.4,2,0.4c0.4,0,0.8,0,1.6,0
		s0.8-0.4,1.6-0.4c0.4-0.4,0.8-0.4,1.2-0.8c0.4-0.4,0.4-0.8,0.4-1.2c0-0.8,0-1.2-0.4-1.6s-0.8-0.8-1.6-0.8c-0.8-0.4-1.2-0.4-2-0.8
		c-0.8,0-1.6-0.4-2.4-0.8s-1.6-0.4-2.4-0.8s-1.6-0.8-2-1.2s-1.2-1.2-1.6-2c-0.4-0.8-0.4-1.6-0.4-2.8c0-1.2,0.4-2,0.8-2.8
		c0.4-0.8,1.2-1.6,2-2c0.8-0.4,1.6-0.8,2.8-1.2c-0.4-0.4,0.4-0.4,1.6-0.4s2.4,0,3.2,0.4s2,0.8,2.8,1.2s1.6,1.2,2,2.4
		c0.4,0.8,0.8,2,0.8,3.2H342c0-0.8,0-1.2-0.4-1.6s-0.4-0.8-0.8-1.2c-0.4,0-0.8-0.4-1.6-0.4c-0.4,0-1.2,0-1.6,0s-0.8,0-1.2,0
		s-0.8,0.4-1.2,0.4s-0.4,0.4-0.8,0.8c-0.4,0.4-0.4,0.8-0.4,1.2s0,0.8,0.4,1.2c0,0.4,0.4,0.4,0.8,0.8s1.2,0.4,2,0.8
		c0.8,0.4,2,0.4,3.6,0.8c0.4,0,0.8,0.4,1.6,0.4c0.8,0.4,1.6,0.4,2.4,1.2s1.2,1.2,2,2c0.4,0.8,0.8,2,0.8,3.2c0,1.2,0,2-0.4,2.8
		s-0.8,1.6-1.6,2.4c-0.8,0.8-1.6,1.2-2.8,1.6s-2.4,0.4-4,0.4c-1.2,0-2.4,0-3.6-0.4s-2-0.8-3.2-1.6s-1.6-1.6-2-2.4
		c-0.4-1.2-0.8-2-0.8-3.6h4.8C333.6,284,333.6,284.8,334,285.2z"/>
	<path fill="#FFFFFF" d="M370.4,268.4l8.4,22.4h-5.2L372,286h-8.4l-1.6,4.8h-4.8l8.4-22.4H370.4z M370.8,282.4L368,274l0,0l-2.8,8.4
		H370.8z"/>
	<path fill="#FFFFFF" d="M385.6,268.4v22.4h-4.8v-22.4H385.6z"/>
	<path fill="#FFFFFF" d="M402,268.4c1.2,0,2,0,2.8,0.4c0.8,0.4,1.6,0.8,2,1.2s1.2,1.2,1.2,2s0.4,1.6,0.4,2.4c0,1.2-0.4,2.4-0.8,3.6
		c-0.4,0.8-1.6,1.6-2.8,2l0,0c0.8,0,1.2,0.4,1.6,0.8c0.4,0.4,0.8,0.8,0.8,1.2s0.4,0.8,0.4,1.6c0,0.4,0,1.2,0.4,1.6
		c0,0.4,0,0.8,0,1.2s0,0.8,0,1.6c0,0.4,0,0.8,0.4,1.6c0.4,0.8,0.4,0.8,0.4,1.2H404c-0.4-0.8-0.4-1.6-0.4-2.4c0-0.8,0-2-0.4-2.8
		c0-1.2-0.4-2-1.2-2.4c-0.4-0.4-1.6-0.8-2.8-0.8h-4.8v8.8h-4.8v-22.4H402V268.4z M400.4,278.8c1.2,0,2-0.4,2.4-0.8s0.8-1.2,0.8-2.4
		c0-1.2-0.4-2-0.8-2.4c-0.4-0.4-1.6-0.8-2.4-0.8h-5.2v6.4C395.2,278.8,400.4,278.8,400.4,278.8z"/>
	<path fill="#FFFFFF" d="M432.4,268.4l8.4,22.4h-5.2L434,286h-8.4l-1.6,4.8h-4.8l8.4-22.4H432.4z M432.8,282.4L430,274l0,0l-2.8,8.4
		H432.8z"/>
	<path fill="#FFFFFF" d="M449.6,268.4l5.2,15.6l0,0l4.8-15.6h6.8v22.4h-4.8v-16l0,0l-5.6,16h-3.6l-5.6-15.6l0,0v15.6H442v-22.4
		H449.6z"/>
	<path fill="#FFFFFF" d="M481.6,268.4c1.2,0,2,0,2.8,0.4c0.8,0.4,1.6,0.4,2.4,0.8s1.2,0.8,1.6,1.6s0.4,1.6,0.4,2.8s-0.4,2-0.8,2.8
		c-0.4,0.8-1.2,1.2-2.4,2c1.2,0.4,2.4,1.2,3.2,2c0.8,0.8,1.2,2,1.2,3.6c0,1.2-0.4,2-0.8,2.8s-1.2,1.6-1.6,2
		c-0.8,0.4-1.6,0.8-2.4,1.2c-0.8,0.4-2,0.4-2.8,0.4h-10.8v-22.4C471.6,268.4,481.6,268.4,481.6,268.4z M481.2,277.6
		c0.8,0,1.6-0.4,2-0.8c0.4-0.4,0.8-1.2,0.8-2c0-0.4,0-0.8-0.4-1.2c0-0.4-0.4-0.4-0.8-0.8c-0.4,0-0.8-0.4-1.2-0.4c-0.4,0-0.8,0-1.2,0
		H476v5.2C476,277.6,481.2,277.6,481.2,277.6z M481.6,287.2c0.4,0,0.8,0,1.2,0s0.8-0.4,1.2-0.4c0.4-0.4,0.8-0.4,0.8-0.8
		c0-0.4,0.4-0.8,0.4-1.6c0-1.2-0.4-2-0.8-2.4c-0.8-0.4-1.6-0.8-2.4-0.8h-6v6C476,287.2,481.6,287.2,481.6,287.2z"/>
	<path fill="#FFFFFF" d="M509.6,289.2c-1.6,1.6-4,2.4-7.2,2.4s-5.2-0.8-7.2-2c-1.6-1.6-2.4-3.6-2.4-6.8v-14h4.8v14
		c0,0.8,0,1.2,0,1.6s0.4,1.2,0.8,1.6c0.4,0.4,0.8,0.8,1.2,1.2c0.4,0.4,1.2,0.4,2.4,0.4c1.6,0,2.8-0.4,3.6-1.2c0.8-0.8,0.8-2,0.8-3.6
		v-14h4.8v14C512.4,285.6,511.6,287.6,509.6,289.2z"/>
	<path fill="#FFFFFF" d="M521.6,268.4v18.4h10.8v4h-16v-22.4H521.6z"/>
	<path fill="#FFFFFF" d="M546.4,268.4l8.4,22.4h-5.2L548,286h-8.4l-1.6,4.8h-4.8l8.4-22.4H546.4z M546.8,282.4L544,274l0,0l-2.8,8.4
		H546.8z"/>
	<path fill="#FFFFFF" d="M561.6,268.4l9.2,15.2l0,0v-15.2h4.8v22.4h-4.8l-9.2-14.8l0,0v14.8h-4.8v-22.4H561.6z"/>
	<path fill="#FFFFFF" d="M594.4,274.4c-0.4-0.4-0.8-0.8-1.2-1.2c-0.4-0.4-0.8-0.8-1.6-0.8s-1.2-0.4-1.6-0.4c-1.2,0-2,0.4-2.8,0.8
		c-0.8,0.4-1.6,1.2-2,1.6c-0.4,0.8-0.8,1.6-1.2,2.4c-0.4,0.8-0.4,2-0.4,2.8s0,2,0.4,2.8c0.4,0.8,0.4,1.6,1.2,2.4
		c0.8,0.8,1.2,1.2,2,1.6c0.8,0.4,1.6,0.8,2.8,0.8c1.6,0,2.8-0.4,3.6-1.2c0.8-0.8,1.2-2,1.6-3.6h4.8c0,1.6-0.4,2.8-0.8,3.6
		c-0.4,1.2-1.2,2-2,2.8s-2,1.6-3.2,2s-2.4,0.8-3.6,0.8c-1.6,0-3.2-0.4-4.8-0.8c-1.2-0.4-2.4-1.6-3.6-2.4c-0.8-1.2-1.6-2.4-2-3.6
		c-0.4-1.6-0.8-2.8-0.8-4.4c0-1.6,0.4-3.2,0.8-4.8c0.4-1.6,1.2-2.8,2-3.6c0.8-0.8,2-2,3.6-2.4c1.2-0.8,2.8-0.8,4.8-0.8
		c1.2,0,2.4,0,3.6,0.4c1.2,0.4,2,0.8,2.8,1.6c0.8,0.8,1.6,1.6,2,2.4c0.4,1.2,0.8,2,1.2,3.6h-4.8
		C594.8,275.6,594.4,274.8,594.4,274.4z"/>
	<path fill="#FFFFFF" d="M620,268.4v4h-12v4.8h10.8v4H608v5.6h12v4h-16.8v-22.4H620z"/>
</g>
</svg>
