<?xml version="1.0" encoding="UTF-8"?>
<svg width="31px" height="30px" viewBox="0 0 31 30" version="1.1" xmlns="http://www.w3.org/2000/svg" xmlns:xlink="http://www.w3.org/1999/xlink">
    <!-- Generator: Sketch 46.2 (44496) - http://www.bohemiancoding.com/sketch -->
    <title>Combined Shape</title>
    <desc>Created with Sketch.</desc>
    <defs></defs>
    <g id="Page-1" stroke="none" stroke-width="1" fill="none" fill-rule="evenodd">
        <g id="Logistics-(p27)" transform="translate(-273.000000, -53.000000)" fill="#FFFFFF">
            <g id="header">
                <g id="Social" transform="translate(232.000000, 53.000000)">
                    <g id="FB" transform="translate(41.510204, 0.000000)">
                        <path d="M15,0 L15,0 C23.2842712,-1.52179594e-15 30,6.71572875 30,15 L30,15 C30,23.2842712 23.2842712,30 15,30 L15,30 L15,30 C6.71572875,30 1.14701368e-13,23.2842712 1.13686838e-13,15 L1.13686838e-13,15 L1.13686838e-13,15 C1.12672307e-13,6.71572875 6.71572875,1.52179594e-15 15,0 L15,0 Z M16.1554804,23.1416016 L16.1554804,15.6407233 L18.2277608,15.6407233 L18.5023826,13.0558792 L16.1554804,13.0558792 L16.1590012,11.7621398 C16.1590012,11.0879726 16.223109,10.7267384 17.1922074,10.7267384 L18.4877126,10.7267384 L18.4877126,8.14160156 L16.4151389,8.14160156 C13.9256446,8.14160156 13.0494071,9.39552906 13.0494071,11.5042409 L13.0494071,13.0561719 L11.4976174,13.0561719 L11.4976174,15.6410161 L13.0494071,15.6410161 L13.0494071,23.1416016 L16.1554804,23.1416016 Z" id="Combined-Shape"></path>
                    </g>
                </g>
            </g>
        </g>
    </g>
</svg>