<?xml version="1.0" encoding="UTF-8"?>
<svg width="30px" height="30px" viewBox="0 0 30 30" version="1.1" xmlns="http://www.w3.org/2000/svg" xmlns:xlink="http://www.w3.org/1999/xlink">
    <!-- Generator: Sketch 46.2 (44496) - http://www.bohemiancoding.com/sketch -->
    <title>Combined Shape</title>
    <desc>Created with Sketch.</desc>
    <defs></defs>
    <g id="Page-1" stroke="none" stroke-width="1" fill="none" fill-rule="evenodd">
        <g id="Logistics-(p27)" transform="translate(-315.000000, -53.000000)" fill="#FFFFFF">
            <g id="header">
                <g id="Social" transform="translate(232.000000, 53.000000)">
                    <g id="IG" transform="translate(83.000000, 0.000000)">
                        <path d="M15.0102041,0 L15.0102041,0 C23.2888398,-1.5207607e-15 30,6.71116023 30,14.9897959 L30,15.0102041 L30,15.0102041 C30,23.2888398 23.2888398,30 15.0102041,30 L15.0102041,30 C6.73156839,30 0.0204081633,23.2888398 0.0204081633,15.0102041 L0.0204081633,14.9897959 L0.0204081633,14.9897959 C0.0204081633,6.71116023 6.73156839,1.5207607e-15 15.0102041,0 L15.0102041,0 Z M15.0102193,7.31011905 C12.9295585,7.31011905 12.6686624,7.31897131 11.8515184,7.35639499 C11.0360774,7.39372711 10.4791605,7.52373321 9.99185439,7.7138431 C9.48806551,7.91033272 9.06082116,8.17327534 8.63488448,8.60077839 C8.20897822,9.02831197 7.94701773,9.45715812 7.75126203,9.96283578 C7.56186223,10.4519689 7.43234171,11.0109737 7.39514904,11.8294719 C7.35786514,12.6496795 7.34904594,12.9115537 7.34904594,15.0000153 C7.34904594,17.0884463 7.35786514,17.3503205 7.39514904,18.1705281 C7.43234171,18.9890263 7.56186223,19.5480311 7.75126203,20.0371642 C7.94701773,20.5428419 8.20897822,20.971688 8.63488448,21.3992216 C9.06082116,21.8267247 9.48806551,22.0896673 9.99185439,22.2861874 C10.4791605,22.4762668 11.0360774,22.6062729 11.8515184,22.643605 C12.6686624,22.6810287 12.9295585,22.689881 15.0102193,22.689881 C17.0908497,22.689881 17.3517458,22.6810287 18.1688898,22.643605 C18.9843307,22.6062729 19.5412477,22.4762668 20.0285538,22.2861874 C20.5323426,22.0896673 20.959587,21.8267247 21.3855237,21.3992216 C21.8114299,20.971688 22.0733904,20.5428419 22.2691765,20.0371642 C22.4585459,19.5480311 22.5880665,18.9890263 22.6252591,18.1705281 C22.662543,17.3503205 22.6713622,17.0884463 22.6713622,15.0000153 C22.6713622,12.9115537 22.662543,12.6496795 22.6252591,11.8294719 C22.5880665,11.0109737 22.4585459,10.4519689 22.2691765,9.96283578 C22.0733904,9.45715812 21.8114299,9.02831197 21.3855237,8.60077839 C20.959587,8.17327534 20.5323426,7.91033272 20.0285538,7.7138431 C19.5412477,7.52373321 18.9843307,7.39372711 18.1688898,7.35639499 C17.3517458,7.31897131 17.0908497,7.31011905 15.0102193,7.31011905 Z M15.0102193,8.69568071 C17.0558162,8.69568071 17.2981312,8.70352564 18.1059694,8.74052198 C18.8529247,8.77471001 19.2585773,8.89998474 19.5285359,9.00529609 C19.886139,9.14479548 20.1413482,9.31143162 20.4094213,9.58054029 C20.6775248,9.84961844 20.8435386,10.1057845 20.9825169,10.4647283 C21.0874349,10.735699 21.2122417,11.1428724 21.2463021,11.8926282 C21.2831602,12.7034951 21.2909758,12.9467186 21.2909758,15.0000153 C21.2909758,17.0532814 21.2831602,17.2965049 21.2463021,18.1073718 C21.2122417,18.8571276 21.0874349,19.264301 20.9825169,19.5352717 C20.8435386,19.8942155 20.6775248,20.1503816 20.4094213,20.4194597 C20.1413482,20.6885684 19.886139,20.8552045 19.5285359,20.9947039 C19.2585773,21.1000153 18.8529247,21.22529 18.1059694,21.259478 C17.2982528,21.2964744 17.0559683,21.3043193 15.0102193,21.3043193 C12.9644399,21.3043193 12.7221857,21.2964744 11.9144388,21.259478 C11.1674834,21.22529 10.7618309,21.1000153 10.4918723,20.9947039 C10.1342692,20.8552045 9.87905994,20.6885684 9.61098684,20.4194597 C9.34291374,20.1503816 9.1768696,19.8942155 9.03789126,19.5352717 C8.93297325,19.264301 8.80816645,18.8571276 8.77410611,18.1073718 C8.73724796,17.2965049 8.72943233,17.0532814 8.72943233,15.0000153 C8.72943233,12.9467186 8.73724796,12.7034951 8.77410611,11.8926282 C8.80816645,11.1428724 8.93297325,10.735699 9.03789126,10.4647283 C9.1768696,10.1057845 9.34288333,9.84961844 9.61098684,9.58054029 C9.87905994,9.31143162 10.1342692,9.14479548 10.4918723,9.00529609 C10.7618309,8.89998474 11.1674834,8.77471001 11.9144388,8.74052198 C12.722277,8.70352564 12.9645919,8.69568071 15.0102193,8.69568071 Z M15.0102193,17.5632937 C13.5998172,17.5632937 12.4564847,16.4156746 12.4564847,15.0000153 C12.4564847,13.5843254 13.5998172,12.4367063 15.0102193,12.4367063 C16.4205909,12.4367063 17.5639235,13.5843254 17.5639235,15.0000153 C17.5639235,16.4156746 16.4205909,17.5632937 15.0102193,17.5632937 Z M15.0102193,11.0511447 C12.8374435,11.0511447 11.0760983,12.8190934 11.0760983,15.0000153 C11.0760983,17.1809066 12.8374435,18.9488553 15.0102193,18.9488553 C17.1829647,18.9488553 18.9443098,17.1809066 18.9443098,15.0000153 C18.9443098,12.8190934 17.1829647,11.0511447 15.0102193,11.0511447 Z M20.0190959,10.8951313 C20.0190959,10.3854853 19.6074829,9.97232906 19.0997405,9.97232906 C18.5920287,9.97232906 18.1804156,10.3854853 18.1804156,10.8951313 C18.1804156,11.4047772 18.5920287,11.8179029 19.0997405,11.8179029 C19.6074829,11.8179029 20.0190959,11.4047772 20.0190959,10.8951313 Z" id="Combined-Shape"></path>
                    </g>
                </g>
            </g>
        </g>
    </g>
</svg>