<?xml version="1.0" encoding="UTF-8"?>
<svg width="30px" height="30px" viewBox="0 0 30 30" version="1.1" xmlns="http://www.w3.org/2000/svg" xmlns:xlink="http://www.w3.org/1999/xlink">
    <!-- Generator: Sketch 46.2 (44496) - http://www.bohemiancoding.com/sketch -->
    <title>Combined Shape</title>
    <desc>Created with Sketch.</desc>
    <defs></defs>
    <g id="Page-1" stroke="none" stroke-width="1" fill="none" fill-rule="evenodd">
        <g id="Logistics-(p27)" transform="translate(-232.000000, -53.000000)" fill="#FFFFFF">
            <g id="header">
                <g id="Social" transform="translate(232.000000, 53.000000)">
                    <g id="TW">
                        <path d="M14.9897959,0 L14.9897959,0 C23.2684316,-1.5207607e-15 29.9795918,6.71116023 29.9795918,14.9897959 L29.9795918,15.0102041 L29.9795918,15.0102041 C29.9795918,23.2888398 23.2684316,30 14.9897959,30 L14.9897959,30 L14.9897959,30 C6.71116023,30 2.79019731e-15,23.2888398 1.77635684e-15,15.0102041 L0,14.9897959 L0,14.9897959 C-1.01384047e-15,6.71116023 6.71116023,1.5207607e-15 14.9897959,0 L14.9897959,0 Z M15.0322728,12.8980845 L15.0616322,13.3692986 L14.57231,13.3115989 C12.7911771,13.0904168 11.2351325,12.3403209 9.91396251,11.0805444 L9.26805715,10.4554645 L9.1016876,10.917062 C8.74937563,11.9460397 8.97446383,13.0327172 9.70844719,13.7635798 C10.0999049,14.1674776 10.0118269,14.2251773 9.33656225,13.984762 C9.1016876,13.907829 8.89617228,13.8501294 8.8765994,13.8789792 C8.80809429,13.9462955 9.04296894,14.8214073 9.22891137,15.1676055 C9.48335898,15.6484362 10.0020405,16.1196503 10.5696542,16.3985321 L11.0491901,16.6197142 L10.4815762,16.6293309 C9.9335354,16.6293309 9.91396251,16.6389475 9.97268117,16.8408964 C10.16841,17.4659762 10.9415392,18.1295227 11.8027462,18.4180211 L12.4095058,18.61997 L11.8810378,18.9277016 C11.0981223,19.3700659 10.1781965,19.6200979 9.2582707,19.6393311 C8.81788073,19.6489477 8.45578231,19.6874142 8.45578231,19.716264 C8.45578231,19.8124302 9.64972853,20.3509605 10.344566,20.5625261 C12.4290787,21.187606 14.9050491,20.9183408 16.7644735,19.8508967 C18.0856434,19.0911841 19.4068134,17.5813757 20.0233595,16.1196503 C20.3560985,15.3407046 20.6888376,13.9174457 20.6888376,13.234666 C20.6888376,12.7923018 20.718197,12.7346021 21.2662379,12.2056883 C21.5891905,11.8979566 21.8925703,11.5613751 21.951289,11.465209 C22.0491534,11.2824933 22.0393669,11.2824933 21.5402583,11.4459758 C20.7084105,11.7344742 20.5909732,11.6960077 21.0020038,11.2632601 C21.3053837,10.9555284 21.6674821,10.3977648 21.6674821,10.2342824 C21.6674821,10.2054325 21.5206854,10.2535156 21.3543159,10.3400651 C21.1781599,10.4362313 20.7867021,10.5804804 20.4931088,10.66703 L19.9646408,10.8305125 L19.485105,10.5131641 C19.220871,10.3400651 18.8489861,10.1477329 18.6532572,10.0900332 C18.1541486,9.95540058 17.3908059,9.97463376 16.9406295,10.1284996 C15.717324,10.5612473 14.9441948,11.6767745 15.0322728,12.8980845 Z" id="Combined-Shape"></path>
                    </g>
                </g>
            </g>
        </g>
    </g>
</svg>