<?xml version="1.0" encoding="UTF-8"?>
<svg width="75px" height="34px" viewBox="0 0 75 34" version="1.1" xmlns="http://www.w3.org/2000/svg" xmlns:xlink="http://www.w3.org/1999/xlink">
    <!-- Generator: Sketch 47 (45396) - http://www.bohemiancoding.com/sketch -->
    <title>Fill 33</title>
    <desc>Created with Sketch.</desc>
    <defs></defs>
    <g id="Page-1" stroke="none" stroke-width="1" fill="none" fill-rule="evenodd">
        <g id="landing--parallex" transform="translate(-14.000000, -43.000000)" fill="#FEFEFE">
            <path d="M64.4771526,72.1688084 L64.4771526,72.7614679 L64.5941684,73.8392433 L64.2740957,74.1197921 L58.1273228,74.4365786 L58.0963481,73.6720829 L57.5755129,72.8269293 L57.5147105,72.5113118 L64.4771526,72.1688084 Z M68.7011947,72.3090828 C68.7011947,72.3090828 70.0663794,73.0700717 70.2717307,73.2816523 C70.4759348,73.4944019 70.3738328,74.8235023 70.3738328,74.8235023 L70.2717307,75.0993754 L58.2558108,75.6978797 L58.2558108,75.0619689 C58.2558108,75.0619689 65.6473109,74.6072459 66.746342,74.5441224 C67.8442258,74.4739851 68.7011947,72.3090828 68.7011947,72.3090828 Z M65.245786,72.3090828 L65.5497977,72.0858127 L66.6798035,71.9209902 L66.9562821,72.0858127 L67.5688944,71.9209902 L68.0151607,72.1232192 C68.0151607,72.1232192 67.400254,74.0134174 66.2278012,74.048486 C65.0725567,74.0917373 65.2033391,74.0134174 65.2033391,74.0134174 L65.0725567,73.7994988 L65.0025766,72.6527552 L65.245786,72.3090828 Z M57.3437756,74.503209 L52.2788256,74.7825889 L52.2340843,73.7328685 L52.0493828,73.5212878 L52.0860937,72.7895228 L52.618401,73.2161909 L53.025662,72.935642 L53.1495611,72.6527552 L53.9170473,72.7895228 L54.038652,72.482088 L54.9805147,72.6200245 L55.1847188,72.8982355 L55.4198977,72.8982355 L55.5942742,72.6200245 L56.0405405,72.6200245 L56.0049768,73.1729396 L57.3793393,74.0134174 L57.3437756,74.503209 Z M57.7177674,51.940064 L58.5793252,51.6817252 L58.6206249,52.4637553 L57.6730261,52.420504 L57.7177674,51.940064 Z M59.4294108,51.2901257 L59.773575,51.1510202 L59.773575,52.5946781 L59.4294108,52.5502579 L59.4294108,51.2901257 Z M60.148714,51.3275323 L60.9494694,51.1077689 L60.9884747,52.8109345 L60.148714,52.6835186 L60.148714,51.3275323 Z M89,46.5617079 C89,46.5617079 87.5843379,46.2718074 86.4394183,46.3863648 C85.2990875,46.507936 65.101237,49.2503015 65.101237,49.2503015 C65.101237,49.2503015 64.4691221,49.0141728 64.1295467,49.2503015 L61.1662928,49.768148 C61.1662928,49.768148 60.7108489,49.4268135 60.3414459,49.4852612 L59.773575,49.5437089 L59.4959492,49.2503015 L58.2328665,49.3099181 L57.8864079,49.4268135 L56.9766671,48.9545562 C56.9766671,48.9545562 56.863093,48.7195965 56.5808783,48.7195965 C56.2871915,48.7195965 55.4313698,48.6646556 55.4313698,48.6646556 L46.9775495,43.7082918 L43.8227109,43.6510131 C43.8227109,43.6510131 52.0493828,47.7926162 54.8634989,48.8411677 C54.8634989,48.8411677 55.4313698,49.4852612 56.0049768,49.6009876 C56.0049768,49.6009876 53.0922004,49.6009876 52.2948866,49.3099181 C52.2948866,49.3099181 51.8314121,49.1263924 51.4838063,49.2503015 L23.1820358,47.0842302 L23.6397742,47.4980398 L51.2543635,50.0019387 L51.7086602,50.297684 C51.7086602,50.297684 53.1415306,50.0650622 53.6004162,50.1772818 C54.0558602,50.297684 56.0577487,50.3561317 56.2298308,50.7068178 L56.9766671,50.9920425 L57.0374695,52.4532347 C57.0374695,52.4532347 54.7522191,52.799245 54.3610191,53.0984972 L53.9078696,54.2616061 C53.9078696,54.2616061 51.2543635,54.4322734 49.1457841,54.9583025 C47.8184574,55.2891165 45.6594006,56.1401148 43.533613,56.8812314 C42.7340048,57.1594424 42.2452916,58.1705874 42.343952,59.3909751 L43.6001514,60.6078559 L44.0636258,60.7925506 L43.7630558,60.9877659 L30.4473423,62.2420533 L27.6963231,57.7532709 C27.6963231,57.7532709 26.5020732,57.5206491 24.6665308,58.2746243 L26.0443348,61.8399332 L23.4103314,61.3735206 L20.3782447,56.5305453 C20.3782447,56.5305453 19.8069321,56.1202426 18.5438494,56.3540333 L16.8918612,56.6521165 L19.2425028,63.2286502 C19.2425028,63.2286502 17.0054354,63.1234444 15.925907,63.4577651 C15.925907,63.4577651 14.0295621,63.9966528 14.0295621,64.9879256 C14.0295621,65.9721846 13.6865451,67.1411384 15.3373862,67.6659986 C15.3373862,67.6659986 16.0303034,68.0143468 16.4283867,68.0143468 C16.8299116,68.0143468 18.3132594,67.7805561 19.1782588,67.6659986 C20.0386693,67.5479343 22.7724804,67.3141435 22.7724804,67.3141435 L23.1200862,67.6659986 L23.0581367,68.0143468 L23.5835607,68.0681187 L23.6397742,67.378436 L24.6665308,67.3141435 L25.0118422,67.4929934 L26.2691888,67.4929934 L27.2431735,66.568351 L27.8076028,66.568351 L28.1575031,67.3141435 L32.2083159,67.9558991 L33.3578244,67.0254119 L32.8977915,65.9721846 L44.1726112,64.8628475 C44.1726112,64.8628475 49.1457841,70.4644738 51.8818896,71.7421403 L51.4275928,72.6784722 L51.3702321,73.5516806 L51.2015916,73.9502939 L51.1717641,74.8538951 L50.5729183,74.9450735 L50.6325735,75.5330572 L57.2049627,75.2408188 L57.260029,75.7528205 L56.6967469,75.7680169 L56.7449299,76.3489869 L72.1405424,75.5915049 C72.1405424,75.5915049 73.7982667,75.3542073 74.7068602,72.7895228 L73.3990362,72.7310751 L73.8556274,73.1986566 C73.8556274,73.1986566 73.3990362,75.0619689 70.9852978,75.0035212 L70.8786069,73.2535974 C70.8786069,73.2535974 69.6109354,72.0378855 69.2139994,72.0378855 L69.2139994,71.4861394 C69.2139994,71.4861394 79.8785011,71.0699919 80.6436929,65.6507223 C80.6436929,65.6507223 77.1687816,59.0987367 68.0151607,57.4060917 C68.0151607,57.4060917 66.9906985,57.1465839 66.1027549,56.2955856 C65.101237,55.3300298 64.1295467,53.7390838 61.2764254,52.9161404 L61.2144758,50.9359328 L64.8763831,50.9359328 L65.2159584,50.9920425 L88.2588997,50.9920425 L65.9019924,50.4215931 L65.556681,50.1772818 L65.1608921,49.9469979 C65.1608921,49.9469979 65.6656663,49.7097003 66.4606857,49.9469979 L89,46.5617079 Z" id="Fill-33"></path>
        </g>
    </g>
</svg>