<?xml version="1.0" encoding="UTF-8"?>
<svg width="122px" height="83px" viewBox="0 0 122 83" version="1.1" xmlns="http://www.w3.org/2000/svg" xmlns:xlink="http://www.w3.org/1999/xlink">
    <!-- Generator: Sketch 47.1 (45422) - http://www.bohemiancoding.com/sketch -->
    <title>LAA_Logo_Web</title>
    <desc>Created with Sketch.</desc>
    <defs></defs>
    <g id="Page-1" stroke="none" stroke-width="1" fill="none" fill-rule="evenodd">
        <g id="LAA_Logo_Web" fill-rule="nonzero" fill="#FFFFFF">
            <g id="Group" transform="translate(0.000000, 75.000000)">
                <polygon id="Shape" points="0.4 0.8 1.8 0.8 1.8 5.8 4.8 5.8 4.8 7 0.4 7"></polygon>
                <path d="M8.4,0.6 C10.3,0.6 11.5,2 11.5,3.9 C11.5,5.7 10.4,7.1 8.4,7.1 C6.5,7.1 5.3,5.7 5.3,3.9 C5.3,2.1 6.4,0.6 8.4,0.6 Z M8.4,6 C9.6,6 10.1,5 10.1,3.9 C10.1,2.8 9.6,1.8 8.4,1.8 C7.2,1.8 6.7,2.8 6.7,3.9 C6.7,5 7.1,6 8.4,6 Z" id="Shape"></path>
                <polygon id="Shape" points="12.4 0.8 13.8 0.8 16.4 5 16.4 5 16.4 0.8 17.7 0.8 17.7 7 16.3 7 13.7 2.8 13.7 2.8 13.7 7 12.4 7"></polygon>
                <path d="M18.8,0.8 L21.5,0.8 C23.1,0.8 24.3,1.8 24.3,3.9 C24.3,5.7 23.4,7 21.5,7 L18.8,7 L18.8,0.8 Z M20.2,5.8 L21.4,5.8 C22.2,5.8 22.9,5.3 22.9,4 C22.9,2.7 22.5,1.9 21.1,1.9 L20.1,1.9 L20.2,5.8 L20.2,5.8 Z" id="Shape"></path>
                <path d="M28.1,0.6 C30,0.6 31.2,2 31.2,3.9 C31.2,5.7 30.1,7.1 28.1,7.1 C26.2,7.1 25,5.7 25,3.9 C25,2.1 26.1,0.6 28.1,0.6 Z M28.1,6 C29.3,6 29.8,5 29.8,3.9 C29.8,2.8 29.3,1.8 28.1,1.8 C26.9,1.8 26.4,2.8 26.4,3.9 C26.4,5 26.8,6 28.1,6 Z" id="Shape"></path>
                <polygon id="Shape" points="32.1 0.8 33.5 0.8 36 5 36 5 36 0.8 37.3 0.8 37.3 7 35.9 7 33.3 2.8 33.3 2.8 33.3 7 32 7"></polygon>
                <path d="M38.5,0.8 L39.7,0.8 L39.7,2.1 C39.7,2.9 39.2,3.5 38.5,3.6 L38.5,3 C38.9,2.9 39.1,2.5 39.1,2.1 L38.5,2.1 L38.5,0.8 Z" id="Shape"></path>
                <path d="M41.9,4.9 C41.9,5.7 42.5,6 43.3,6 C43.8,6 44.5,5.9 44.5,5.2 C44.5,4.5 43.6,4.4 42.7,4.2 C41.8,4 40.8,3.6 40.8,2.4 C40.8,1.1 42,0.5 43.1,0.5 C44.4,0.5 45.6,1.1 45.6,2.5 L44.3,2.5 C44.3,1.8 43.7,1.6 43.1,1.6 C42.7,1.6 42.2,1.8 42.2,2.3 C42.2,2.8 42.5,2.8 44.1,3.2 C44.6,3.3 45.9,3.6 45.9,5 C45.9,6.1 45,7 43.3,7 C41.9,7 40.6,6.3 40.7,4.8 L41.9,4.9 L41.9,4.9 Z" id="Shape"></path>
                <path d="M50.7,0.8 L52.1,0.8 L54.4,7 L53,7 L52.5,5.6 L50.2,5.6 L49.7,7 L48.3,7 L50.7,0.8 Z M50.6,4.6 L52.2,4.6 L51.4,2.3 L51.4,2.3 L50.6,4.6 Z" id="Shape"></path>
                <polygon id="Shape" points="55 0.8 56.4 0.8 56.4 7 55 7"></polygon>
                <path d="M57.6,0.8 L60.9,0.8 C62,0.8 62.7,1.6 62.7,2.5 C62.7,3.2 62.4,3.8 61.7,4.1 L61.7,4.1 C62.4,4.3 62.6,4.9 62.6,5.5 C62.6,5.9 62.6,6.6 62.9,7 L61.5,7 C61.3,6.6 61.4,6 61.3,5.5 C61.2,4.9 61,4.6 60.3,4.6 L59,4.6 L59,7 L57.6,7 L57.6,0.8 Z M59,3.6 L60.5,3.6 C61.1,3.6 61.4,3.3 61.4,2.7 C61.4,2.1 61.1,1.8 60.5,1.8 L59,1.8 L59,3.6 Z" id="Shape"></path>
                <path d="M68,0.8 L69.4,0.8 L71.7,7 L70.3,7 L69.8,5.6 L67.5,5.6 L67,7 L65.6,7 L68,0.8 Z M67.9,4.6 L69.5,4.6 L68.7,2.3 L68.7,2.3 L67.9,4.6 Z" id="Shape"></path>
                <polygon id="Shape" points="72.3 0.8 74.2 0.8 75.6 5.1 75.6 5.1 77 0.8 78.9 0.8 78.9 7 77.6 7 77.6 2.6 77.6 2.6 76.1 7 75.1 7 73.6 2.6 73.6 2.6 73.6 7 72.3 7"></polygon>
                <path d="M80.2,0.8 L83.1,0.8 C84.3,0.8 85.1,1.2 85.1,2.3 C85.1,2.9 84.8,3.3 84.3,3.6 C85.1,3.8 85.4,4.4 85.4,5.2 C85.4,6.5 84.3,7 83.2,7 L80.2,7 L80.2,0.8 Z M81.6,3.3 L83,3.3 C83.5,3.3 83.8,3.1 83.8,2.6 C83.8,2 83.3,1.9 82.9,1.9 L81.6,1.9 L81.6,3.3 Z M81.6,5.9 L83.1,5.9 C83.6,5.9 84.1,5.7 84.1,5.1 C84.1,4.5 83.7,4.2 83.1,4.2 L81.6,4.2 L81.6,5.9 Z" id="Shape"></path>
                <path d="M91.6,4.7 C91.6,6.4 90.6,7.2 88.9,7.2 C87.2,7.2 86.3,6.4 86.3,4.7 L86.3,0.8 L87.7,0.8 L87.7,4.7 C87.7,5.4 87.9,6 89,6 C90,6 90.3,5.6 90.3,4.7 L90.3,0.8 L91.7,0.8 L91.7,4.7 L91.6,4.7 Z" id="Shape"></path>
                <polygon id="Shape" points="92.8 0.8 94.2 0.8 94.2 5.8 97.2 5.8 97.2 7 92.8 7"></polygon>
                <path d="M99.7,0.8 L101.1,0.8 L103.4,7 L102,7 L101.5,5.6 L99.2,5.6 L98.7,7 L97.3,7 L99.7,0.8 Z M99.6,4.6 L101.2,4.6 L100.4,2.3 L100.4,2.3 L99.6,4.6 Z" id="Shape"></path>
                <polygon id="Shape" points="104 0.8 105.4 0.8 108 5 108 5 108 0.8 109.3 0.8 109.3 7 107.9 7 105.3 2.8 105.3 2.8 105.3 7 104 7"></polygon>
                <path d="M114.6,2.9 C114.5,2.3 113.9,1.8 113.2,1.8 C112,1.8 111.5,2.8 111.5,3.9 C111.5,4.9 112,6 113.2,6 C114,6 114.5,5.4 114.6,4.6 L115.9,4.6 C115.8,6.2 114.7,7.1 113.2,7.1 C111.3,7.1 110.2,5.7 110.2,3.9 C110.2,2.1 111.3,0.6 113.2,0.6 C114.6,0.6 115.7,1.4 115.9,2.8 L114.6,2.9 L114.6,2.9 Z" id="Shape"></path>
                <polygon id="Shape" points="116.9 0.8 121.5 0.8 121.5 1.9 118.2 1.9 118.2 3.2 121.2 3.2 121.2 4.3 118.2 4.3 118.2 5.8 121.5 5.8 121.5 7 116.8 7"></polygon>
            </g>
            <g id="Group">
                <path d="M61.2,5.5 C86.7,5.5 109,19 121.3,39.2 C111.2,16.1 88.1,-1.42108547e-14 61.1,-1.42108547e-14 C33.8,-1.42108547e-14 10.4,16.6 0.5,40.2 C12.7,19.4 35.3,5.5 61.2,5.5" id="Shape"></path>
                <path d="M69.3,20 L83.9,17.8 C83.9,17.8 83,17.6 82.2,17.7 C81.5,17.8 68.4,19.5 68.4,19.5 C68.4,19.5 68,19.4 67.8,19.5 L65.9,19.8 C65.9,19.8 65.6,19.6 65.4,19.6 L65,19.6 L64.8,19.4 L64,19.4 L63.8,19.5 L63.2,19.2 C63.2,19.2 63.1,19.1 62.9,19.1 C62.7,19.1 62.2,19.1 62.2,19.1 L56.7,15.9 L54.7,15.9 C54.7,15.9 60,18.5 61.9,19.2 C61.9,19.2 62.3,19.6 62.6,19.7 C62.6,19.7 60.7,19.7 60.2,19.5 C60.2,19.5 59.9,19.4 59.7,19.5 L41.4,18.1 L41.7,18.4 L59.6,20 L59.9,20.2 C59.9,20.2 60.8,20.1 61.1,20.1 C61.4,20.2 62.7,20.2 62.8,20.4 L63.3,20.6 L63.3,21.5 C63.3,21.5 61.8,21.7 61.6,21.9 L61.3,22.6 C61.3,22.6 59.6,22.7 58.2,23 C57.3,23.2 55.9,23.8 54.6,24.2 C54.1,24.4 53.8,25 53.8,25.8 L54.6,26.6 L54.9,26.7 L54.7,26.8 L46.1,27.6 L44.3,24.7 C44.3,24.7 43.5,24.6 42.3,25 L43.2,27.3 L41.5,27 L39.5,23.9 C39.5,23.9 39.1,23.6 38.3,23.8 L37.2,24 L38.7,28.2 C38.7,28.2 37.3,28.1 36.6,28.3 C36.6,28.3 35.4,28.6 35.4,29.3 C35.4,29.9 35.2,30.7 36.2,31 C36.2,31 36.6,31.2 36.9,31.2 C37.2,31.2 38.1,31.1 38.7,31 C39.3,30.9 41,30.8 41,30.8 L41.2,31 L41.2,31.2 L41.5,31.2 L41.5,30.8 L42.2,30.8 L42.4,30.9 L43.2,30.9 L43.8,30.3 L44.2,30.3 L44.4,30.8 L47,31.2 L47.7,30.6 L47.4,29.9 L54.7,29.2 C54.7,29.2 57.9,32.8 59.7,33.6 L59.4,34.2 L59.4,34.8 L59.3,35.1 L59.3,35.7 L58.9,35.8 L58.9,36.2 L63.2,36 L63.2,36.3 L62.8,36.3 L62.8,36.7 L72.8,36.2 C72.8,36.2 73.9,36 74.5,34.4 L73.7,34.4 L74,34.7 C74,34.7 73.7,35.9 72.1,35.8 L72,34.7 C72,34.7 71.2,33.9 70.9,33.9 L70.9,33.5 C70.9,33.5 77.8,33.2 78.3,29.8 C78.3,29.8 76,25.6 70.1,24.6 C70.1,24.6 69.4,24.4 68.9,23.9 C68.3,23.3 67.6,22.3 65.8,21.8 L65.8,20.5 L68.2,20.5 L68.4,20.5 L83.3,20.5 L68.8,20.1 L68.6,19.9 L68.3,19.8 C68.4,20 68.8,19.8 69.3,20 L69.3,20 Z M65.2,20.9 L65.7,20.8 L65.7,21.9 L65.2,21.8 L65.2,20.9 Z M64.7,20.8 L64.9,20.7 L64.9,21.6 L64.7,21.6 L64.7,20.8 Z M63.6,21.3 L64.2,21.1 L64.2,21.6 L63.6,21.6 L63.6,21.3 Z M63.4,35.6 L60.1,35.8 L60.1,35.1 L60,35 L60,34.5 L60.3,34.8 L60.6,34.6 L60.7,34.4 L61.2,34.5 L61.3,34.3 L61.9,34.4 L62,34.6 L62.2,34.6 L62.3,34.4 L62.6,34.4 L62.6,34.8 L63.5,35.3 L63.4,35.6 Z M68.5,34.2 L68.7,34.1 L69.4,34 L69.6,34.1 L70,34 L70.3,34.1 C70.3,34.1 69.9,35.3 69.1,35.3 C68.4,35.3 68.4,35.3 68.4,35.3 L68.3,35.2 L68.3,34.5 L68.5,34.2 Z M69.5,35.6 C70.2,35.6 70.8,34.2 70.8,34.2 C70.8,34.2 71.7,34.7 71.8,34.8 C71.9,34.9 71.9,35.8 71.9,35.8 L71.8,36 L64,36.4 L64,36 C64,36 68.7,35.7 69.5,35.6 Z M68,34.1 L68,34.5 L68.1,35.2 L67.9,35.4 L63.9,35.6 L63.9,35.1 L63.6,34.6 L63.6,34.4 L68,34.1 Z" id="Shape"></path>
                <polygon id="Shape" points="82 67.4 82 58.3 67.5 58.3 67.5 67.4 72.8 65 73.1 65.5 66.9 68.3 66.9 57.7 82.5 57.7 82.5 68.3 76.3 65.5 76.6 65"></polygon>
                <path d="M67,56.5 L82.3,56.5 L82.3,53.7 L83.8,52.8 L84.5,50.3 L85.3,52.9 L86.8,53.7 L86.8,68.5 L107.6,68.5 L109.1,59 L110.9,71.3 L111.5,71.3 L112.6,68.4 L115.9,68.4 L117,64.3 L117.9,68.4 L121.6,68.4 L121.6,67.8 L118.4,67.8 L117.3,63 L116.7,63 L115.5,67.8 L112.2,67.8 L111.4,70 L109.5,57 L108.9,57 L107.2,67.9 L102.1,67.9 C101.5,67.8 87.4,65.5 87.4,57.4 L87.4,53.4 L85.8,52.5 L84.5,48.3 L83.3,52.4 L81.7,53.4 L81.7,55.9 L67.5,55.9 L67.5,53.4 L65.9,52.4 L64.7,48.2 L63.5,52.5 L61.9,53.4 L61.9,57.7 C61.6,65.6 47.8,67.9 47.2,68 L45.4,68 L45.4,64 L43.6,64 L43.5,58.3 C43.5,58.2 43.5,57.7 42.5,57.6 C42.5,56.9 42.5,56.6 42.5,56.6 L42.6,56.3 L42.1,56.3 C42.2,55.3 42,52.5 39.2,51.1 L39.2,49.9 L38.8,49.9 L38.8,47.6 L38.5,47.6 C38.5,47.1 38.5,46.4 38.1,46.2 C38,45.4 37.9,44 37.9,43.9 L37.5,43.9 L37.3,43.9 C37.3,43.9 37.2,45.3 37.1,46.2 C36.7,46.5 36.6,47.2 36.7,47.6 L36.4,47.6 L36.4,49.9 L36,49.9 L36,51.1 C33.2,52.5 33.1,55.3 33.1,56.3 L32.6,56.3 L32.7,56.6 C32.7,56.6 32.8,56.9 32.7,57.6 C31.7,57.7 31.7,58.3 31.7,58.3 L31.6,64 L29.8,64 L29.8,68 L25.6,68 L25.6,62.7 L26.1,62.2 L26.1,57.5 L25.6,57.3 L25.6,56.5 L25.5,56.4 C24.9,55.8 24.4,54.6 24.3,54.4 L24.3,53 L22.8,49.4 L21.2,53.1 L21.2,54.4 C21,54.8 20.3,55.9 19.9,56.5 L19.8,57.2 L19.3,57.8 L19.3,61.8 L19.8,62.3 L19.8,67.9 L16.5,67.9 L15.9,67.9 L14.5,64.5 L13,68 L10.6,68 L9.8,70.5 L7,57.3 L6.4,57.3 L4.1,67.8 L0.6,67.8 L0.6,68.4 L4.6,68.4 L6.7,58.7 L9.8,72.7 L11.1,68.5 L13.4,68.5 L14.4,66.1 L15.4,68.5 L20.2,68.5 L20.2,62.1 L19.7,61.6 L19.7,58 L20.2,57.4 L20.3,56.7 C20.5,56.4 21.4,54.9 21.6,54.6 L21.6,53.2 L22.7,50.8 L23.6,53 L23.6,54.4 L23.6,54.5 C23.6,54.6 24.2,55.9 24.9,56.7 L24.9,57.7 L25.4,57.9 L25.4,62 L24.9,62.5 L24.9,68.6 L30.3,68.6 L30.3,64.6 L32,64.6 L32.1,58.4 C32.1,58.4 32.3,58.2 32.8,58.2 L33.1,58.2 L33.1,58 C33.1,57.5 33.1,57.2 33.1,56.9 L33.6,56.9 L33.5,56.6 C33.5,56.6 33,53 36.2,51.6 L36.4,51.5 L36.4,50.5 L37,50.5 L37,48.2 L37.3,48.2 L37.3,47.9 C37.2,47.3 37.3,46.7 37.5,46.7 L37.7,46.7 L37.7,46.7 L37.9,46.7 C38,46.7 38.1,47.3 38.1,47.9 L38.1,48.2 L38.4,48.2 L38.4,50.5 L38.8,50.5 L38.8,51.5 L39,51.6 C42.2,53 41.7,56.5 41.7,56.6 L41.6,56.9 L42,56.9 C42,57.1 42,57.5 42,58 L42,58.2 L42.3,58.2 C42.8,58.2 43,58.4 43,58.4 L43.1,64.6 L45,64.6 L45,68.6 L62.6,68.6 L62.6,57.8 C62.6,57.7 62.6,57.6 62.6,57.6 L62.6,53.9 L64.1,53.1 L64.8,50.5 L65.5,52.9 L67.1,53.8 L67,56.5 Z M87.5,60.3 C89.4,64.8 95.7,67 99.3,67.9 L87.5,67.9 L87.5,60.3 Z M62,67.9 L50.1,67.9 C53.8,67 60,64.8 61.9,60.3 L61.9,67.9 L62,67.9 Z" id="Shape"></path>
            </g>
        </g>
    </g>
</svg>